<svg width="1440" height="4239" fill="none" xmlns="http://www.w3.org/2000/svg"><g clip-path="url(#a)"><path d="M155.917 1053.21c-41.271 71.49-132.679 95.98-204.163 54.71-71.485-41.28-95.977-132.682-54.706-204.167 41.272-71.484 132.68-95.976 204.163-54.704 71.486 41.27 95.978 132.677 54.706 204.161z" fill="url(#b)"/><path d="M129.917 75.211C88.646 146.695-2.762 171.19-74.246 129.917c-71.485-41.272-95.977-132.679-54.706-204.164 41.272-71.484 132.68-95.976 204.163-54.704 71.486 41.27 95.978 132.677 54.706 204.162z" fill="url(#c)"/><path d="M1122.92 136.211c-41.27 71.484-132.682 95.978-204.166 54.706-71.485-41.272-95.977-132.679-54.706-204.164 41.272-71.484 132.679-95.976 204.162-54.704 71.49 41.27 95.98 132.677 54.71 204.162z" fill="url(#d)"/><path d="M1509.92 2084.21c-41.27 71.49-132.68 95.98-204.17 54.71-71.48-41.28-95.97-132.68-54.7-204.17 41.27-71.48 132.68-95.97 204.16-54.7 71.49 41.27 95.98 132.68 54.71 204.16z" fill="url(#e)"/><path d="M1574.88 2926.21c-31.06 71.49-99.84 95.98-153.63 54.71-53.79-41.28-72.22-132.68-41.16-204.17 31.05-71.48 99.83-95.97 153.62-54.7 53.8 41.27 72.23 132.68 41.17 204.16z" fill="url(#f)"/><path d="M681.78 1678.72c-18.907 32.75-60.784 43.97-93.533 25.06s-43.97-60.78-25.062-93.53c18.907-32.75 60.784-43.97 93.533-25.07 32.75 18.91 43.97 60.79 25.062 93.54z" fill="url(#g)"/><path d="M1471.78 384.718c-18.91 32.749-60.78 43.97-93.53 25.062-32.75-18.908-43.97-60.784-25.07-93.533 18.91-32.75 60.79-43.97 93.54-25.062 32.75 18.907 43.97 60.784 25.06 93.533z" fill="url(#h)"/></g><defs><linearGradient id="b" x1="-102.951" y1="903.751" x2="155.916" y2="1053.21" gradientUnits="userSpaceOnUse"><stop stop-color="#6CE9DC"/><stop offset=".307" stop-color="#52B2D5"/><stop offset="1" stop-color="#3868C6"/></linearGradient><linearGradient id="c" x1="-128.951" y1="-74.249" x2="129.916" y2="75.213" gradientUnits="userSpaceOnUse"><stop stop-color="#6CE9DC"/><stop offset=".307" stop-color="#52B2D5"/><stop offset="1" stop-color="#3868C6"/></linearGradient><linearGradient id="d" x1="864.049" y1="-13.248" x2="1122.92" y2="136.213" gradientUnits="userSpaceOnUse"><stop stop-color="#6CE9DC"/><stop offset=".307" stop-color="#52B2D5"/><stop offset="1" stop-color="#3868C6"/></linearGradient><linearGradient id="e" x1="1251.05" y1="1934.75" x2="1509.92" y2="2084.21" gradientUnits="userSpaceOnUse"><stop stop-color="#6CE9DC"/><stop offset=".307" stop-color="#52B2D5"/><stop offset="1" stop-color="#3868C6"/></linearGradient><linearGradient id="f" x1="1380.09" y1="2776.75" x2="1598.57" y2="2871.67" gradientUnits="userSpaceOnUse"><stop stop-color="#6CE9DC"/><stop offset=".307" stop-color="#52B2D5"/><stop offset="1" stop-color="#3868C6"/></linearGradient><linearGradient id="g" x1="563.185" y1="1610.25" x2="681.78" y2="1678.72" gradientUnits="userSpaceOnUse"><stop stop-color="#6CE9DC"/><stop offset=".307" stop-color="#52B2D5"/><stop offset="1" stop-color="#3868C6"/></linearGradient><linearGradient id="h" x1="1353.19" y1="316.246" x2="1471.78" y2="384.719" gradientUnits="userSpaceOnUse"><stop stop-color="#6CE9DC"/><stop offset=".307" stop-color="#52B2D5"/><stop offset="1" stop-color="#3868C6"/></linearGradient><clipPath id="a"><path fill="#fff" d="M0 0h1440v4239H0z"/></clipPath></defs></svg>