<svg width="317" height="263" fill="none" xmlns="http://www.w3.org/2000/svg"><path d="M257.427 244.547c67.55-62.082-21.626-131.311-8.927-179.088 13.044-49.082-36.199-76.028-104.396-46.83C77.711 47.055 41.431 97.885 32.787 133.197c-14.29 58.383 38.793 126.866 86.66 110.58 43.201-14.698 93.364 41.772 137.98.77" fill="#E9F5FE"/><path d="M132.82 241.692c13.979 0 28.456 4.74 42.592 9.367 27.665 9.057 56.273 18.423 82.679-5.843l.45.491-.45-.491c43.094-39.605 23.468-82.564 6.15-120.465-10.538-23.068-20.493-44.856-15.532-63.526 5.12-19.262.976-35.892-11.669-46.828-19.653-16.995-56.004-17.22-94.864-.582C76.256 42.038 37.331 93.142 28 131.27c-8.038 32.834 4.903 72.758 31.47 97.088 17.846 16.342 38.567 22.144 56.854 15.925 5.381-1.831 10.899-2.591 16.496-2.591zm86.612 20.34c-14.791 0-29.743-4.894-44.435-9.705-20.489-6.708-39.842-13.04-58.244-6.781-18.761 6.385-39.969.476-58.184-16.206-26.91-24.642-40.013-65.101-31.865-98.388 9.411-38.45 48.604-89.958 114.948-118.364 39.331-16.838 76.216-16.532 96.261.802 13.051 11.286 17.343 28.396 12.086 48.178-4.839 18.208 5.018 39.784 15.456 62.628 17.505 38.315 37.345 81.742-6.462 122.002-12.838 11.798-26.133 15.834-39.561 15.834" fill="#D2E5F5"/><path d="M97.214 70.478c-48.61-10.954-56.987 68.368-22.012 108.313 32.163 36.735 98.675 25.376 113.075 21.457 45.591-12.406 62.11-62.461 22.708-74.646-31.713-9.808-54.192-1.34-65.726-8.423-24.439-15.003-27.676-42.11-48.045-46.701" fill="url(#a)"/><path d="m251.193 108.521.172-.036c.232-.105 23.4-10.666 36.338-24.677 12.921-13.993 20.18-28.62 20.25-28.767a.397.397 0 1 0-.712-.349c-.072.144-7.281 14.673-20.121 28.577-12.827 13.892-35.851 24.39-36.081 24.494a.397.397 0 0 0 .154.758z" fill="#6399E2"/><path d="M264.665 101.169s20.756-7.713 19.459-1.442c-1.299 6.269-19.459 1.442-19.459 1.442zM264.789 100.332s8.366-16.817 3.659-17.556c-4.709-.737-3.659 17.556-3.659 17.556zM281.355 89.712s18.356 5.46 18.821-1.144c.467-6.604-18.821 1.144-18.821 1.144zM281.647 88.855s7.678-18.885 1.842-17.548c-5.836 1.339-1.842 17.548-1.842 17.548zM294.692 75.617s19.653 4.17 18.744-1.906c-.908-6.076-18.744 1.906-18.744 1.906zM294.391 75.543s4.636-15.29-.128-14.472c-4.763.817.128 14.472.128 14.472zM303.404 62.656s13.187-1.898 11.36-4.798c-1.827-2.9-11.36 4.798-11.36 4.798zM303.035 62.77s3.332-12.525.165-11.758c-3.168.768-.165 11.758-.165 11.758zM306.797 56.271s14.332-15.945 8.898-17.016c-5.438-1.07-8.898 17.016-8.898 17.016z" fill="#6399E2"/><path d="M198.935 226.836a8.085 8.085 0 0 1-8.087 8.08 8.083 8.083 0 0 1-8.08-8.087 8.082 8.082 0 0 1 8.085-8.08 8.086 8.086 0 0 1 8.082 8.087z" fill="#C8E5F9"/><path d="M27.222 111.268a4.644 4.644 0 1 1-9.288-.004 4.644 4.644 0 0 1 9.288.004zM71.886 31.176a3.513 3.513 0 1 1-7.027-.003 3.513 3.513 0 0 1 7.027.003zM26.22 182.346a3.514 3.514 0 1 1-7.03-.003 3.514 3.514 0 0 1 7.03.003z" fill="#DAECF9"/><path d="M4.657 146.012c-.76 0-1.475.296-2.012.833a2.829 2.829 0 0 0-.836 2.014 2.85 2.85 0 0 0 2.847 2.848c.76 0 1.475-.296 2.013-.834a2.825 2.825 0 0 0 .835-2.012 2.851 2.851 0 0 0-2.847-2.849zm0 7.028a4.186 4.186 0 0 1-4.181-4.181 4.187 4.187 0 0 1 4.18-4.18 4.186 4.186 0 0 1 4.181 4.182 4.15 4.15 0 0 1-1.226 2.955 4.154 4.154 0 0 1-2.955 1.224" fill="#D3E6F6"/><path d="M99.21 233.512a3.514 3.514 0 1 1-7.028-.001 3.514 3.514 0 0 1 7.027.001zM140.577 51.563a5.365 5.365 0 0 1-3.828 1.59 5.353 5.353 0 0 1-3.796-1.569 5.333 5.333 0 0 1-1.612-3.85c0-2.98 2.434-5.407 5.414-5.407a5.38 5.38 0 0 1 4.097 1.888 5.333 5.333 0 0 1 1.315 3.53 5.362 5.362 0 0 1-1.59 3.818zm.964-8.154a6.389 6.389 0 0 0-4.786-2.142c-3.563 0-6.474 2.894-6.474 6.468-.01 2.46 1.374 4.601 3.399 5.694a6.268 6.268 0 0 0 3.069.784 6.48 6.48 0 0 0 6.479-6.468 6.415 6.415 0 0 0-1.687-4.336" fill="#fff"/><path d="M300.427 109.784a4.765 4.765 0 0 1-3.334 1.373 4.711 4.711 0 0 1-3.333-1.373 4.68 4.68 0 0 1-1.373-3.333c0-1.267.48-2.454 1.373-3.334a4.692 4.692 0 0 1 3.333-1.386c2.6 0 4.72 2.12 4.707 4.72 0 1.293-.533 2.48-1.373 3.333zm.946-7.613a6.063 6.063 0 0 0-4.28-1.774 6.03 6.03 0 0 0-6.04 6.054 5.947 5.947 0 0 0 1.76 4.266 6.012 6.012 0 0 0 4.28 1.774 6.008 6.008 0 0 0 4.28-1.774 5.996 5.996 0 0 0 1.76-4.266c.014-1.614-.626-3.134-1.76-4.28z" fill="#9FC6F1"/><path d="M40.773 78.448c0-8.786 7.141-15.906 15.95-15.906 8.81 0 15.951 7.12 15.951 15.906 0 8.784-7.142 15.906-15.95 15.906-8.81 0-15.951-7.122-15.951-15.906z" fill="#fff"/><path d="M56.724 62.875c-8.612 0-15.618 6.985-15.618 15.573 0 8.587 7.006 15.572 15.617 15.572 8.612 0 15.618-6.985 15.618-15.572 0-8.588-7.006-15.573-15.617-15.573zm0 31.812c-8.98 0-16.284-7.285-16.284-16.239s7.304-16.24 16.284-16.24c8.979 0 16.283 7.286 16.283 16.24 0 8.954-7.304 16.239-16.284 16.239z" fill="#0041EF"/><path d="M78.056 41.39c0-8.784 7.141-15.907 15.95-15.907 8.81 0 15.951 7.123 15.951 15.907 0 8.785-7.141 15.906-15.95 15.906-8.81 0-15.95-7.121-15.95-15.906z" fill="#fff"/><path d="M94.007 25.816c-8.612 0-15.617 6.987-15.617 15.573 0 8.587 7.005 15.574 15.617 15.574 8.61 0 15.617-6.987 15.617-15.574 0-8.586-7.007-15.573-15.617-15.573zm0 31.813c-8.98 0-16.284-7.285-16.284-16.24 0-8.954 7.304-16.24 16.284-16.24 8.978 0 16.284 7.286 16.284 16.24 0 8.955-7.306 16.24-16.284 16.24z" fill="#0041EF"/><path d="M153.492 28.47h131.503a2.667 2.667 0 0 1 2.666 2.666v155.456a2.667 2.667 0 0 1-2.666 2.667H153.492a2.668 2.668 0 0 1-2.667-2.667V31.136a2.668 2.668 0 0 1 2.667-2.666z" fill="#fff"/><path d="M153.492 28.803a2.335 2.335 0 0 0-2.333 2.333v155.456a2.336 2.336 0 0 0 2.333 2.334h131.503a2.336 2.336 0 0 0 2.333-2.334V31.136a2.336 2.336 0 0 0-2.333-2.333H153.492zm131.503 160.789H153.492c-1.655 0-3-1.345-3-3V31.136c0-1.653 1.345-3 3-3h131.503c1.654 0 3 1.347 3 3v155.456c0 1.655-1.346 3-3 3z" fill="#0041EF"/><path d="m286.893 39.42-136.202-.2a.333.333 0 1 1 0-.668l136.202.202a.333.333 0 1 1 0 .666z" fill="#0041EF"/><path d="M160.549 62.626h30.983v35.208h-30.983V62.624zM198.976 63.028h30.983v35.208h-30.983V63.028M238.207 63.833h30.982V99.04h-30.982V63.833M160.8 112.492h43.612V171.8H160.8v-59.308z" fill="#E8F2F9"/><path d="M193.929 42.928h77.548a2.667 2.667 0 0 1 2.667 2.667v1.368a2.666 2.666 0 0 1-2.667 2.666h-77.548a2.666 2.666 0 0 1-2.666-2.666v-1.368a2.666 2.666 0 0 1 2.666-2.667" fill="#B0DAF9"/><path d="M153.013 53.239h131.408v6.89H153.013v-6.89z" fill="#E8F2F9"/><path d="M162.035 31.632c-1.247 0-2.26.999-2.26 2.227 0 1.227 1.013 2.225 2.26 2.225 1.245 0 2.26-.998 2.26-2.225 0-1.228-1.015-2.227-2.26-2.227zm0 5.119c-1.615 0-2.927-1.297-2.927-2.892 0-1.596 1.312-2.893 2.927-2.893 1.613 0 2.926 1.297 2.926 2.893 0 1.595-1.313 2.892-2.926 2.892z" fill="#0041EF"/><path d="M168.409 33.733c0-1.413 1.162-2.558 2.594-2.558s2.593 1.145 2.593 2.558c0 1.415-1.161 2.56-2.593 2.56s-2.594-1.145-2.594-2.56z" fill="#1060F5"/><path d="M179.888 31.632c-1.247 0-2.26.999-2.26 2.227 0 1.227 1.013 2.225 2.26 2.225 1.247 0 2.26-.998 2.26-2.225 0-1.228-1.013-2.227-2.26-2.227zm0 5.119c-1.613 0-2.927-1.297-2.927-2.892 0-1.596 1.314-2.893 2.927-2.893s2.927 1.297 2.927 2.893c0 1.595-1.314 2.892-2.927 2.892z" fill="#0041EF"/><path d="M160.695 100.8h32.625v1.908h-32.625V100.8zM198.297 100.889h32.624v1.908h-32.624v-1.908zM238.513 100.619h32.624v1.908h-32.624v-1.908M160.892 104.536h32.624v1.908h-32.624v-1.908zM198.493 104.627h32.626v1.908h-32.626v-1.908zM238.709 104.356l17.426-.187v1.909l-17.426.186v-1.908M160.597 108.667l20.912-.034v1.908l-20.912.034v-1.908zM214.481 118.116h48.622v7.183h-48.622v-7.183z" fill="#B0DAF9"/><path d="M254.52 125.024a.333.333 0 0 1-.333-.333v-5.879a.333.333 0 1 1 .666 0v5.879a.333.333 0 0 1-.333.333z" fill="#0041EF"/><path d="m257.329 120.169 3.548-.11-1.573 2.561-1.975-2.451z" fill="#fff"/><path d="m258.009 120.482 1.259 1.561 1.001-1.632-2.26.071zm1.295 2.472-.26-.124-1.975-2.451-.042-.349a.335.335 0 0 1 .292-.194l3.548-.11.3.165-.006.343-1.573 2.561-.263.157-.021.002" fill="#0041EF"/><path d="M171.673 69.744s1.582 1.493 3.776 1.67c2.195.174 3.338-1.846 3.338-1.846s2.194.352 3.512 1.406c1.317 1.053 4.829 5.62 4.829 5.62l-3.161 3.424-3.336-2.109 1.228 11.855h-12.03l.264-11.855-1.932 2.372-4.39-1.844s2.284-5.005 3.425-6.234c1.141-1.23 4.477-2.459 4.477-2.459M207.461 68.936h11.298l5.684 21.843-21.775-.068 4.793-21.775" fill="#2356F1"/><path d="M205.223 89.39c-.242-.039-.362-.212-.328-.394l3.477-18.993a.338.338 0 0 1 .388-.268.334.334 0 0 1 .268.388l-3.477 18.993a.335.335 0 0 1-.328.274zM208.523 89.568c-.218-.02-.352-.184-.332-.366l1.872-18.727a.333.333 0 0 1 .662.067l-1.872 18.726a.333.333 0 0 1-.33.3zM212.265 89.21a.334.334 0 0 1-.332-.335l.179-18.459c.001-.184.173-.366.336-.33a.335.335 0 0 1 .331.337l-.179 18.459a.333.333 0 0 1-.335.329zM215.835 88.766a.334.334 0 0 1-.334-.32l-.802-18.37a.333.333 0 0 1 .318-.346c.166-.022.339.134.348.318l.803 18.37a.335.335 0 0 1-.319.348h-.014zM219.223 89.21a.335.335 0 0 1-.331-.284l-2.673-18.46a.333.333 0 0 1 .281-.376.344.344 0 0 1 .379.282l2.674 18.459a.335.335 0 0 1-.282.377l-.048.003zM221.879 88.708a.335.335 0 0 1-.326-.261l-4.049-18.318a.333.333 0 1 1 .651-.145l4.049 18.319a.332.332 0 0 1-.253.397l-.072.008z" fill="#B0DAF9"/><path d="M207.549 67.167h10.996v1.669h-10.996v-1.67z" fill="#2356F1"/><path d="M213.349 66.763c.422 0 .762.341.762.762v.927a.761.761 0 1 1-1.523 0v-.927c0-.42.34-.762.761-.762z" fill="#0100BC"/><path d="m256.981 69.699 8.526-.243s-1.402 3.532-.792 5.298c.609 1.765.73 5.237.426 6.212-.305.974-6.638.852-8.89.79-2.254-.06-4.995.915-8.648 1.036-3.654.123-6.09-.486-6.09-.486s-.244-1.219 1.096-1.706c1.34-.488 5.359-1.157 7.064-2.376 1.706-1.217 4.811-2.678 5.42-3.836.608-1.156 1.888-4.689 1.888-4.689" fill="#2356F1"/><path d="M241.391 82.123s-.852 3.105-.183 4.2c.671 1.097 3.411 1.28 5.725 1.22 2.314-.062 5.602-.366 7.672-.671 2.071-.304 7.026.11 8.304-.135 1.279-.242 2.223-1.004 2.344-2.344.122-1.338.686-2.952-.289-3.317-.973-.365-3.389.288-6.527.324-2.462.028-5.737.741-9.269 1.045-3.532.306-7.777-.322-7.777-.322" fill="#fff"/><path d="m255.795 77.74-.272-.14-1.624-2.29a.335.335 0 0 1 .078-.464.336.336 0 0 1 .466.08l1.624 2.289a.332.332 0 0 1-.079.464l-.193.061zM254.005 79.03l-.282-.157-1.666-2.662a.333.333 0 0 1 .566-.353l1.665 2.662a.333.333 0 0 1-.107.459l-.176.052zM252.091 80.279l-.292-.172L250.3 77.4a.334.334 0 0 1 .584-.322l1.499 2.705a.334.334 0 0 1-.131.453l-.161.042zM249.801 80.987a.335.335 0 0 1-.308-.206l-.914-2.206a.334.334 0 1 1 .616-.255l.914 2.206a.334.334 0 0 1-.18.436l-.128.025zM258.583 81.573c-.158-.034-.222-.144-.194-.25.031-.12.784-2.914 2.503-4.022 1.704-1.098 3.961-1.038 4.055-1.036l.193.207-.207.193c-.016.002-2.226-.058-3.825.972-1.589 1.024-2.325 3.759-2.332 3.787l-.193.15zM247.608 82.704l-.185-.124-1.166-2.844.11-.26.261.11 1.165 2.843-.109.26-.076.015M256.344 71.501l-.2-.193.193-.207 8.607-.273.2.194-.193.205-8.607.274" fill="#E8F2F9"/><path d="m179.889 115.819 4.306 6.794 4.305-6.996s4.912 1.211 6.056 2.422c.379.401 2.267.838 1.844 2.093-.853 2.535-4.737 6.451-4.737 6.451l-2.556 7.805 5.516 26.641-20.452.471 4.373-27.315-2.893-8.208s-3.69-3.134-4.338-5.537c-.264-.98 1.807-1.885 1.983-2.333.607-1.548 6.593-2.288 6.593-2.288" fill="#2356F1"/><path d="M178.449 133.732h10.783v1.749h-10.783v-1.749z" fill="#0100BC"/><path d="M184.032 133.266c.468 0 .848.38.848.848v1.172c0 .468-.38.846-.848.846a.847.847 0 0 1-.848-.846v-1.172c0-.468.38-.848.848-.848z" fill="#0D2A8A"/><path d="M184.032 133.399a.717.717 0 0 0-.715.715v1.172a.716.716 0 0 0 1.43 0v-1.172a.715.715 0 0 0-.715-.715zm0 2.867a.982.982 0 0 1-.981-.98v-1.172a.982.982 0 0 1 1.962 0v1.172c0 .54-.44.98-.981.98z" fill="#E8F2F9"/><path d="M228.404 131.075h65.401a2.667 2.667 0 0 1 2.667 2.666v32.944a2.668 2.668 0 0 1-2.667 2.667h-65.401a2.668 2.668 0 0 1-2.667-2.667v-32.944a2.667 2.667 0 0 1 2.667-2.666z" fill="#fff"/><path d="M228.404 131.408a2.336 2.336 0 0 0-2.333 2.334v32.944a2.336 2.336 0 0 0 2.333 2.333h65.401a2.336 2.336 0 0 0 2.334-2.333v-32.944a2.337 2.337 0 0 0-2.334-2.334h-65.401zm65.401 38.278h-65.401c-1.653 0-3-1.346-3-3v-32.944c0-1.655 1.347-3 3-3h65.401c1.655 0 3 1.345 3 3v32.944c0 1.654-1.345 3-3 3z" fill="#0041EF"/><path d="M271.332 146.401c-.013-.12-.28-2.981 1.428-4.974.959-1.118 2.324-1.73 4.061-1.82 1.659-.079 3.011.369 4.011 1.358 1.881 1.859 1.78 4.908 1.776 5.038l-1.332-.052c0-.027.076-2.603-1.385-4.042-.723-.71-1.738-1.038-3-.97-1.359.07-2.408.526-3.118 1.356-1.341 1.564-1.117 3.949-1.114 3.973l-1.327.133" fill="#2356F1"/><path d="M270.209 147.34a.667.667 0 0 0-.666.667l-1.708 10.501c.009.261.308.56.676.56l17.598-.193a.669.669 0 0 0 .674-.667l-1.602-10.097c-.008-.472-.306-.771-.674-.771h-14.298zm-1.692 13.061a2.003 2.003 0 0 1-2.006-2l1.708-10.502c-.01-.995.888-1.892 1.99-1.892h14.298c1.102 0 2 .897 2 2l1.601 10.097c.008 1.207-.889 2.104-1.992 2.104l-17.599.193z" fill="#2356F1"/><path d="m275.325 158.239-2.55-5.97 1.226-.522 1.687 3.948 5.837-7.106 1.03.847-7.23 8.803zM237.444 145.659h20.676a3.883 3.883 0 1 1 0 7.768h-20.676a3.884 3.884 0 0 1 0-7.768" fill="#2356F1"/><path d="m46.272 83.575 20.929.13-10.795-6.765c-3.18 2.393-7.955 5.325-10.134 6.635zm22.1.802-23.299-.144a.332.332 0 0 1-.167-.62c5.184-3.06 13.553-8.445 13.94-9.866a2.194 2.194 0 0 0-.406-1.943 1.881 1.881 0 0 0-1.559-.73c-1.337.062-1.92 1.769-1.926 1.786a.334.334 0 1 1-.633-.21c.03-.089.74-2.16 2.53-2.24.8-.05 1.58.318 2.109.978a2.86 2.86 0 0 1 .529 2.533c-.156.572-1.137 1.507-2.52 2.587l11.579 7.253a.333.333 0 0 1-.177.616M86.478 35.908a1.832 1.832 0 0 0-1.838 1.822v9.726c0 1.004.824 1.822 1.838 1.822h15.333c1.014 0 1.84-.818 1.84-1.822V37.73a1.833 1.833 0 0 0-1.84-1.822H86.478zm15.333 14.036H86.478a2.5 2.5 0 0 1-2.505-2.488V37.73a2.5 2.5 0 0 1 2.505-2.488h15.333a2.5 2.5 0 0 1 2.506 2.488v9.726a2.5 2.5 0 0 1-2.506 2.488z" fill="#0041EF"/><path d="M84.406 38.708a.333.333 0 0 1-.001-.667l19.324-.069a.333.333 0 1 1 .002.667l-19.325.069zM84.487 47.15a.333.333 0 0 1 0-.667l19.324-.07c.184 0 .333.148.333.332a.332.332 0 0 1-.332.335l-19.325.07zM88.376 36.032c-.204-.012-.344-.17-.333-.353l.213-3.517.134-.247.274-.057 13.621 3.172c.18.04.292.22.25.4a.33.33 0 0 1-.4.249l-13.238-3.083-.189 3.123a.333.333 0 0 1-.332.313z" fill="#0041EF"/><path d="m102.009 35.414-.145-.034-9.862-4.76-.098 2.074c-.008.182-.168.342-.348.316a.332.332 0 0 1-.317-.348l.12-2.576.163-.271.316-.013 10.317 4.978a.334.334 0 0 1-.146.634" fill="#0041EF"/><path d="M111.429 74.872c0-8.785 7.143-15.907 15.952-15.907 8.81 0 15.951 7.122 15.951 15.907s-7.141 15.907-15.951 15.907c-8.809 0-15.952-7.121-15.952-15.907z" fill="#fff"/><path d="M127.381 59.299c-8.612 0-15.618 6.987-15.618 15.573 0 8.588 7.006 15.574 15.618 15.574 8.611 0 15.618-6.986 15.618-15.574 0-8.586-7.007-15.573-15.618-15.573zm0 31.813c-8.98 0-16.285-7.285-16.285-16.24 0-8.954 7.305-16.24 16.285-16.24 8.979 0 16.284 7.286 16.284 16.24 0 8.955-7.305 16.24-16.284 16.24" fill="#0041EF"/><path d="M127.38 67.095c-2.919 0-5.293 2.493-5.293 5.557 0 2.708 4.22 8.872 5.344 10.466 1.105-1.598 5.244-7.758 5.244-10.466 0-3.064-2.375-5.557-5.295-5.557zm.055 16.933-.271-.136c-.235-.321-5.744-7.917-5.744-11.24 0-3.432 2.673-6.224 5.96-6.224s5.961 2.792 5.961 6.224c0 3.322-5.406 10.916-5.637 11.238l-.269.138" fill="#0041EF"/><path d="M127.413 69.438c-1.621 0-2.941 1.277-2.941 2.848 0 1.569 1.32 2.848 2.941 2.848 1.623 0 2.943-1.28 2.943-2.848 0-1.571-1.32-2.848-2.943-2.848zm0 6.362c-1.989 0-3.608-1.577-3.608-3.514 0-1.938 1.619-3.515 3.608-3.515 1.991 0 3.61 1.577 3.61 3.515 0 1.937-1.619 3.514-3.61 3.514z" fill="#0041EF"/><path d="M92.158 92.119s.487-3.499 1.444-5.764c.955-2.266 3.343-3.52 3.343-3.52s.856 2.617 2.417 3.876c1.56 1.258 3.882 3.523 3.875 3.725-.201 1.057-2.164 8.079-6.425 9.936.068-.096.39 2.851.235 3 1.208.856 4.933.805 4.933.805s5.789.756 7.148 2.014c1.36 1.257 2.88-7.358 2.879-10.163-.004-5.81-1.436-8.645-4.236-11.945-2.558-3.013-4.748-2.892-6.527-4.474-2.356-2.093-3.187-4.7-8.556-4.045-3.403.416-6.737 4.226-8.547 9.512-3.206 9.364-6.964 7.798-9.027 13.386-2.065 5.587-1.323 9.693-1.323 9.693l16.36-6.796.352-6.292s-2.961-3.259-1.41-5.512c.574-.596 3.065 2.564 3.065 2.564" fill="#101D94"/><path d="M92.816 75.51c-.472 0-.988.034-1.559.104-3.282.4-6.575 4.085-8.39 9.385-1.839 5.372-3.86 7.18-5.644 8.776-1.348 1.207-2.512 2.247-3.387 4.615-1.777 4.813-1.193 9.698-1.018 10.848l15.696-8.135.342-6.097c-.474-.466-3.264-3.378-1.363-5.708a.56.56 0 0 1 .495-.22c.806.038 2.044 1.632 2.601 2.407.17-1.037.638-3.571 1.385-5.342.97-2.3 3.33-3.561 3.43-3.613l.198-.104.07.213c.008.025.857 2.579 2.354 3.787.388.312.845.64 1.288.96 1.454 1.047 2.829 2.037 2.655 2.948-.294 1.544-2.346 8.112-6.39 10.008.075.49.309 2.166.223 2.802 1.24.746 4.688.702 4.721.707.266.032 5.892.78 7.28 2.064l.217.057c1.095-.478 2.345-7.454 2.344-10.081-.004-5.79-1.476-8.623-4.191-11.823-1.533-1.806-2.948-2.474-4.194-3.064-.823-.39-1.599-.756-2.314-1.39-.501-.444-.933-.911-1.35-1.362-1.347-1.456-2.535-2.741-5.499-2.741zm-20.28 34.3-.048-.25c-.01-.056-1.064-5.729.994-11.302.907-2.455 2.161-3.576 3.489-4.764 1.749-1.566 3.732-3.34 5.537-8.618 1.862-5.436 5.278-9.218 8.704-9.637 4.34-.533 5.817 1.065 7.38 2.756.412.444.837.903 1.324 1.336.674.599 1.427.955 2.224 1.33 1.283.607 2.736 1.294 4.321 3.162 2.774 3.27 4.276 6.16 4.28 12.068.002 2.279-1.154 9.808-2.57 10.428-.215.092-.436.047-.626-.127-1.3-1.202-6.987-1.958-7.043-1.965-.129-.003-3.775.041-5.018-.839l-.187-.132.138-.133c.064-.313-.103-2.039-.2-2.628l-.425.184.461-.649c4.02-1.766 6.037-8.25 6.326-9.767.128-.675-1.269-1.681-2.504-2.57a30.495 30.495 0 0 1-1.304-.974c-1.337-1.079-2.155-3.079-2.4-3.745-.576.349-2.305 1.51-3.068 3.317-.935 2.216-1.425 5.681-1.43 5.716l-.069.49-.275-.412c-.67-1-1.962-2.6-2.578-2.63l-.183.083c-1.836 2.249 1.358 5.22 1.39 5.252l.066.06-.362 6.489-16.344 8.471z" fill="#101D94"/><path d="m90.255 94.89-.042 6.044-5.409 2.62 11.62 13.181 5.745-12.844-5.195-.507-.213-3.845-6.506-4.648" fill="#FF9583"/><path d="M91.795 91.427c-1.096-1.42-4.136-4.227-3.055.801.718 3.344 7.28 9.471 9.039 8.299 5.32-3.545 5.786-9.755 5.245-10.643-.755-1.236-1.914-2.005-3.456-3.269-1.039-.852-2.652-3.95-2.652-3.95s-3.666 2.098-3.98 5.029c-.277 2.592-.828 4.14-1.141 3.733M122.208 168.458s2.36.417 3.193 4.721c.834 4.304.834 25.549.834 25.549l-8.47 1.527-3.472-20.689-3.332-2.915 11.247-8.193M125.263 168.319l11.802-2.083s1.111 1.249 2.36 4.444c1.25 3.193 3.332 23.327 3.332 23.327l-7.497 1.944s-6.527-17.496-7.22-20.551c-.695-3.055-2.777-7.081-2.777-7.081" fill="#FF9583"/><path d="m83.792 102.257 11.934 13.466 6.427-13.314s6.579 1.378 9.028 4.286c2.45 2.908 9.871 20.581 9.871 20.581l-8.723 4.972-2.83 23.107s22.646.076 26.166 3.289c3.519 3.213 4.284 7.345 4.284 7.345s-2.142 1.454-7.268 1.912c-5.126.46-11.246.566-15.093 4.636-14.508 15.355-19.159 8.09-19.159 8.09s-19.074-10.354-20.605-21.064c-1.531-10.712 2.678-21.118 2.678-21.118l-.689-6.044-16.22-2.906s7.04-15.991 8.953-19.74c1.912-3.75 11.246-7.498 11.246-7.498z" fill="#2356F1"/><path d="M66.066 129.963s-1.825 9.234-.806 12.389c1.824 5.648 33.566 15.98 33.566 15.98l5.922.109 1.416-5.412-12.443-2.932-17.352-12.269 1.495-5.977-11.798-1.888M119.647 127.925l1.472 4.598-8.83.092 7.358-4.69z" fill="#FF9583"/><path d="M74.416 156.98h37.587v2.872l-35.382.082-2.205-2.954z" fill="#fff"/><path d="M112.617 133.16h28.768a2.667 2.667 0 0 1 2.667 2.667l-5.92 21.446s-1.195 2.667-2.667 2.667h-28.768s-2.666-1.193-2.666-2.667l5.92-21.446a2.667 2.667 0 0 1 2.666-2.667z" fill="#fff"/><path d="m116.983 200.062 9.845-1.826s.139 11.118 1.411 15.718 2.056 7.536 2.056 7.536l-4.014 3.524-5.481-3.23s.685-2.349-.097-5.97c-.783-3.622-3.72-15.752-3.72-15.752zM134.521 196.086l8.803-2.61 2.999 17.736 2.477 2.999-2.543 4.629-4.564-.456-2.281-1.304c-.913-5.216-4.891-20.994-4.891-20.994" fill="#FFFEEE"/><path d="M145.773 218.921s1.174-4.156 3.279-4.628c2.105-.47 2.364.842 5.144 2.742 2.78 1.9 4.129 2.561 4.129 2.561s.556 1.104-2.208 2.035c-2.764.929-9.625.414-12.968-1.272-3.342-1.688-5.322-.806-5.238-3.85.053-1.945.868-1.99 1.034-1.914.167.076.116 1.692.73 1.984.612.292 6.098 2.342 6.098 2.342M126.241 225.099s1.76-3.943 3.912-4.107c2.151-.162 2.216 1.174 4.695 3.455s3.716 3.131 3.716 3.131.391 1.173-2.477 1.694c-2.87.522-9.586-.977-12.65-3.129s-5.15-1.565-4.629-4.564c.333-1.917 2.381-1.764 2.381-1.764s-.073 1.14.288 1.879c.362.74 4.764 3.405 4.764 3.405" fill="#F85432"/><path d="m265.417 255.6-13.584-9.769s-16.316-5.583-20.558-8.816c-4.246-3.232-17.23-19.649-18.403-24.071-1.173-4.421 3.643-26.05 3.643-26.05s7.125 1.842 8.581 10.204c1.457 8.361 1.092 13.716 1.092 13.716l12.927 10.473s-3.719-10.544-5.464-14.059c-1.746-3.513-5.099-13.622-5.099-13.622l-9.08-20.876-7.831-23.07s-1.801-6.532 1.192-8.412c5.76-3.62 12.935 12.796 12.935 12.796l19.649 37.858s-8.789-21.107-2.852-23.8c5.938-2.692 10.851 1.982 10.851 1.982s-.823-4.294 3.472-5.114c4.292-.823 8.573 2.745 8.573 2.745.791-1.765.482-2.615 3.291-3.564 4.872-1.643 16.424 14.209 19.287 20.153 2.862 5.944 9.38 29.83 12.978 36.46 3.599 6.632 10.094 13.598 10.094 13.598l-.578 21.385-45.116-.147z" fill="#FEB3A2"/><path d="m79.713 132.656-.15-.036a.331.331 0 0 1-.148-.446l4.888-9.48a.334.334 0 0 1 .45-.14.332.332 0 0 1 .14.449l-4.883 9.469a.33.33 0 0 1-.297.184M111.552 133.724l-.095-.013a.334.334 0 0 1-.225-.415c1.792-6.079-.611-13.221-.635-13.293a.333.333 0 0 1 .63-.216c.104.298 2.497 7.41.645 13.698a.333.333 0 0 1-.32.239M105.452 132.043l-.285-.159-9.755-15.933a.332.332 0 0 1 .11-.457.335.335 0 0 1 .459.11l9.755 15.932a.334.334 0 0 1-.111.459l-.173.048z" fill="#fff"/><path d="M80.57 134.191a.333.333 0 0 1-.022-.665l30.255-1.88a.327.327 0 0 1 .353.312.333.333 0 0 1-.312.353l-30.275 1.88" fill="#fff"/><path d="M96.633 101.031c-2.008-.083-5.152-3.612-5.503-4.015a.331.331 0 0 1 .03-.47.331.331 0 0 1 .47.031c.906 1.032 3.569 3.727 5.017 3.787a.334.334 0 0 1-.014.667zM72.6 139.045l-.222-.085a.334.334 0 0 1-.026-.471c1.528-1.706 3.483-1.286 3.567-1.266a.333.333 0 0 1-.147.65c-.068-.016-1.665-.346-2.924 1.062l-.247.11" fill="#09030F"/><path d="m87.159 154.019-.134-.028c-.743-.327-18.191-8.018-20.276-9.518-2.204-1.586-1.979-5.612-1.968-5.781l1.418-8.272.138-.216.251-.055 10.897 1.996a.334.334 0 0 1 .268.388.338.338 0 0 1-.388.268L66.8 130.865l-1.357 7.904s-.208 3.791 1.697 5.163c2.028 1.46 19.973 9.369 20.154 9.448a.334.334 0 0 1-.134.639M102.349 182.149l-.186-.057-18.849-12.757a.334.334 0 0 1 .374-.552l18.733 12.68c.762-.156 4.7-1.052 7.407-3.459.947-.841 1.728-1.727 2.484-2.581 1.736-1.963 3.375-3.816 6.711-4.956 2.266-.774 4.997-1.299 7.638-1.807 2.775-.533 5.396-1.037 6.799-1.739a.337.337 0 0 1 .448.15.336.336 0 0 1-.149.448c-1.484.741-4.15 1.254-6.972 1.796-2.619.504-5.326 1.024-7.55 1.784-3.168 1.081-4.75 2.872-6.425 4.765-.769.871-1.564 1.771-2.541 2.639-3.138 2.789-7.672 3.608-7.864 3.641l-.058.005" fill="#09030F"/><path d="m81.183 240.215-20.665.175-3.557-37.771h27.778l-3.556 37.596" fill="#FFD976"/><path d="M185.081 94.34a3.01 3.01 0 0 1 3.015-3.005 3.01 3.01 0 0 1 3.015 3.005c0 1.66-1.35 3.007-3.015 3.007a3.011 3.011 0 0 1-3.015-3.007z" fill="#C4E7FF"/><path d="m187.195 93.004-.343.115c-.288.188-.431.409-.435.678-.013.774 1.114 1.784 1.672 2.203.563-.439 1.704-1.493 1.686-2.265-.006-.247-.132-.45-.384-.618a.595.595 0 0 0-.471-.105c-.379.085-.656.536-.656.536l-.161.09-.164-.093s-.26-.441-.623-.526l-.121-.015zm.896 3.421-.108-.034c-.082-.058-1.964-1.4-1.943-2.6.007-.398.211-.73.604-.988a.956.956 0 0 1 .76-.152c.313.074.553.302.701.48.154-.18.407-.415.731-.487a.963.963 0 0 1 .764.159c.357.238.544.549.552.922.028 1.194-1.868 2.603-1.949 2.663l-.112.037" fill="#0041EF"/><path d="M197.151 167.771a3.01 3.01 0 0 1 3.014-3.007 3.01 3.01 0 0 1 3.015 3.007 3.01 3.01 0 0 1-3.015 3.006 3.01 3.01 0 0 1-3.014-3.006z" fill="#C4E7FF"/><path d="m199.264 166.434-.344.114c-.287.188-.429.411-.433.679-.014.775 1.113 1.784 1.672 2.204.562-.44 1.702-1.493 1.685-2.267-.007-.246-.132-.448-.384-.616a.591.591 0 0 0-.471-.105c-.378.084-.656.535-.656.535l-.164.092-.161-.095s-.26-.441-.623-.527l-.121-.014zm.896 3.421-.108-.035c-.081-.056-1.964-1.401-1.943-2.6.006-.397.21-.729.604-.988a.966.966 0 0 1 .76-.152c.312.075.554.303.7.48.155-.178.408-.413.732-.485.26-.06.519-.005.764.157.359.24.544.55.554.924.028 1.192-1.87 2.603-1.951 2.663l-.112.036" fill="#0041EF"/><path d="M223.309 94.34a3.01 3.01 0 0 1 3.015-3.005 3.01 3.01 0 0 1 3.015 3.005c0 1.66-1.35 3.007-3.015 3.007a3.011 3.011 0 0 1-3.015-3.007z" fill="#C4E7FF"/><path d="m225.423 93.004-.343.115c-.288.188-.431.409-.435.678-.013.774 1.114 1.784 1.672 2.203.563-.439 1.704-1.493 1.686-2.265-.006-.247-.132-.45-.384-.618a.595.595 0 0 0-.471-.105c-.379.085-.656.536-.656.536l-.161.09-.164-.093s-.26-.441-.623-.526l-.121-.015zm.896 3.421-.108-.034c-.082-.058-1.964-1.4-1.943-2.6.007-.398.209-.73.604-.988a.956.956 0 0 1 .76-.152c.312.074.553.302.701.48.154-.18.407-.415.731-.487a.963.963 0 0 1 .764.159c.357.238.544.549.552.922.028 1.194-1.868 2.603-1.949 2.663l-.112.037" fill="#0041EF"/><path d="M261.761 94.34a3.01 3.01 0 0 1 3.015-3.005 3.01 3.01 0 0 1 3.015 3.005c0 1.66-1.35 3.007-3.015 3.007a3.011 3.011 0 0 1-3.015-3.007z" fill="#C4E7FF"/><path d="m263.875 93.004-.344.115c-.287.188-.43.409-.434.678-.013.775 1.114 1.784 1.672 2.203.563-.439 1.703-1.493 1.686-2.265-.007-.247-.132-.45-.384-.618-.159-.105-.314-.14-.471-.105-.379.085-.656.536-.656.536l-.163.09-.162-.093s-.26-.441-.623-.526l-.121-.015zm.896 3.421-.108-.034c-.082-.058-1.964-1.402-1.943-2.6.005-.398.209-.73.604-.988a.956.956 0 0 1 .76-.152c.312.074.553.302.7.48.155-.18.408-.415.732-.487a.963.963 0 0 1 .764.159c.359.238.544.549.553.924.028 1.192-1.869 2.601-1.95 2.661l-.112.037" fill="#0041EF"/><path d="M70.85 203.015s-.553-.275-.871-.44c-5.038-2.603-30.231-16.206-26.88-25.963.12-.352.28-.653.457-.915.1-.154.212-.293.33-.409 3.178-3.113 11.557 3.379 12.079 3.795-.378-.435-5.21-5.883-9.285-9.624-3.112-2.862-8.018-6.099-10.22-9.858a6.885 6.885 0 0 1-.346-.634c-.586-1.174-.89-2.408-.779-3.687.49-5.663 11.681-.193 11.681-.193s-7.986-6.3-12.386-12.924a5.726 5.726 0 0 1-.327-.49c-2.59-4.073-3.721-8.2-.7-11.001.126-.121.252-.235.395-.344l.238-.179c7.008-5.145 18.925 20.083 19.233 20.73.042-.363.942-9.087 4.513-8.879.502.031.957.215 1.38.537.164.104.31.242.453.388 2.352 2.386 3.393 8.974 3.212 14.278-.16 4.404.115 11.072.138 11.549.075-.468 1.092-6.484 3.55-5.852l.238.081.27.16c2.464 1.748 2.465 11.654 2.824 19.443.377 8.057.803 20.431.803 20.431" fill="#6399E2"/><path d="M70.686 202.93c-.147-.076-.389-.19-.707-.355a791.444 791.444 0 0 1-3.94-9.784l-22.483-17.093c.1-.155.21-.296.33-.41l21.788 16.568c-2.463-6.265-5.425-13.99-8.036-21.389l-.169-.015-21.01-10.85a6.924 6.924 0 0 1-.345-.635l.23-.005 21.075 10.885c-.23-.657-.451-1.312-.678-1.957l-21.205-12.599a.258.258 0 0 1-.086-.355l.355-.086 20.679 12.276c-.068-.191-.143-.386-.207-.583-2.735-8.043-8.251-16.86-13.362-23.955l-8.285-.425a5.708 5.708 0 0 1-.327-.489l.157-.044 8.063.414a191.588 191.588 0 0 0-8.92-11.372c.126-.121.254-.23.395-.344a191.032 191.032 0 0 1 9.249 11.82c5.178 7.203 10.76 16.095 13.53 24.228.306.914.627 1.836.952 2.771l1.583-26.471.05-.138c.164.104.31.241.453.388l-1.626 27.256-.06.114c2.6 7.363 5.555 15.063 8.012 21.315l.557-28.637.018-.074.237.082.27.16-.585 29.574-.03.079a867.607 867.607 0 0 0 4.078 10.135" fill="#fff"/><path d="M47.622 197.975a24.548 24.548 0 0 1-2.883-2.273l9.863-3.298 12.95 8.298c-2.174.465-12.474 2.292-19.93-2.727zm-9.266-15.98 15.837 10.147-9.774 3.268c-5.938-5.652-6.109-11.986-6.063-13.415zm15.05 1.407.987 8.42-15.65-10.027c1.976-.172 9.023-.572 14.663 1.607zm1.398 8.684-1-8.523c.765.317 1.498.683 2.186 1.107l1.765 9.306-2.95-1.89zm12.9 8.266-9.51-6.094-1.764-9.302c.138.092.286.174.418.271 7.343 5.384 10.216 13.137 10.856 15.125zm.502.466.01-.076c-.023-.096-2.596-9.55-11.144-15.819-.248-.183-.52-.339-.783-.505l-.078-.051a16.016 16.016 0 0 0-2.495-1.243l-.158-.061c-6.69-2.589-15.298-1.6-15.402-1.589l-.117.074c-.054.188-.927 9.807 9.372 16.739 4.125 2.777 9.105 3.493 13.143 3.493 4.255 0 7.465-.793 7.527-.809l.107-.079.018-.074M97.007 181.592a28.087 28.087 0 0 1-1.958 4.053c-2.533.272-7.255.875-11.074 1.891-3.978 1.047-8.132 2.517-9.845 3.144 1.717-3.537 4.064-7.041 7.028-10.424.296-.339.583-.657.868-.976a46.65 46.65 0 0 1 8.508-1.628c2.733-.263 6.297-.399 7.627-.444-.32 1.699-.7 3.208-1.154 4.384zM71.03 202.384c-.024-.981.055-5.196 2.781-11.083l.065-.125c1.38-.509 5.893-2.143 10.196-3.276 3.662-.973 8.152-1.561 10.728-1.847-7.324 12.043-21.852 15.872-23.77 16.331zm-.027-25.975c.68-.93 1.39-1.776 2.114-2.564.285 2.083.704 5.659.718 8.78.013 2.998-.17 6.199-.325 8.391l-.042.127c-2.225 4.805-2.707 8.524-2.798 10.314-1.237-3.977-4.966-17.796.333-25.048zm9.2-8.285c.472 2.124.795 3.74 1.008 5.039.323 1.922.525 3.872.606 5.785-.011.012-.632.704-.941 1.057-2.907 3.318-5.217 6.754-6.939 10.224.143-2.121.287-4.942.275-7.606-.014-3.296-.478-7.104-.762-9.138 2.17-2.28 4.49-3.982 6.753-5.361zm5.227-2.836c1.868-.947 3.634-1.84 5.03-2.837.284-.203.555-.406.833-.61.39 1.807.603 4.143.607 6.811-1.053 1.175-2.207 2.3-3.531 3.579-1.694 1.637-3.745 3.622-6.202 6.329a47.606 47.606 0 0 0-.583-5.46c-.218-1.331-.55-2.987-1.038-5.181 1.697-1.014 3.355-1.858 4.884-2.631zm14.392-9.948c-.02 1.915-.107 6.729-.479 11.895-2.326.142-4.86.708-6.756 1.218a24.44 24.44 0 0 0 3.265-4.818c1.156-2.223 3.154-6.524 3.97-8.295zm-4.306 8.12a24.013 24.013 0 0 1-3.241 4.773c-.018-1.924-.153-4.47-.643-6.638a110.885 110.885 0 0 0 7.827-6.37c-.827 1.792-2.8 6.035-3.943 8.235zm2.718 13.368c-1.264.041-4.934.179-7.735.449-3.34.323-6.11.952-7.998 1.478 2.425-2.667 4.454-4.631 6.13-6.252 1.306-1.262 2.45-2.376 3.494-3.534 1.92-.537 4.684-1.193 7.19-1.353-.235 3.16-.579 6.423-1.081 9.212zm1.485-9.427a206.86 206.86 0 0 0 .487-12.937l-.114-.172-.177.029c-.07.044-4.314 3.996-9.674 7.823-1.373.979-3.126 1.867-4.982 2.807-4.49 2.272-10.079 5.102-14.56 11.234-6.32 8.648-.09 26.32-.027 26.498l.178.125c.239-.045 20.047-4.373 26.51-21.081.483-1.251.884-2.874 1.217-4.698.534-2.918.889-6.318 1.13-9.59l.012-.038z" fill="#000"/><path d="m43.307 96.064-.864-.383.192-.432c.566-1.277.675-1.453 1.073-1.37l-.222.917.124-.456.406.243c-.02.033-.23.4-.518 1.049l-.191.432zm-1.451 5.348-.932-.156.078-.467c.112-.67.246-1.301.391-1.885l.114-.459.917.228-.114.458c-.14.562-.269 1.169-.376 1.814l-.078.467zm-1.087 5.612-.034-.471a24.32 24.32 0 0 1-.065-1.769l.007-.632.945.012-.007.62c0 .551.02 1.117.063 1.7l.035.471-.944.069zm1.212 5.64-.144-.449c-.2-.63-.37-1.248-.514-1.858l-.109-.46.92-.216.108.46c.138.586.302 1.182.495 1.786l.144.45-.9.287zm2.529 5.187-.255-.399a20.375 20.375 0 0 1-.96-1.675l-.215-.42.841-.432.215.422c.282.549.59 1.086.916 1.597l.254.399-.796.508zm3.952 4.234-.367-.297a17.886 17.886 0 0 1-1.435-1.307l-.331-.336.673-.662.331.336c.433.438.89.854 1.359 1.236l.366.298-.596.732zm5.106 2.75-.442-.167a18.23 18.23 0 0 1-1.776-.779l-.422-.212.424-.844.422.214c.542.272 1.109.52 1.685.737l.443.167-.334.884zm5.738.997h-.473c-.192 0-.902-.013-1.96-.176l-.467-.072.145-.935.467.074c1.016.156 1.69.164 1.815.164h.473v.945zM71.542 36.973l-.472-.038c-.369-.03-.782-.04-1.194-.047-.206 0-.417.005-.633.015l-.472.022-.044-.944.472-.022a14.87 14.87 0 0 1 1.95.035l.47.038-.077.941zm-8.086 1.308-.354-.876.437-.177c.604-.244 1.22-.457 1.833-.633l.454-.13.26.908-.454.131c-.58.165-1.166.368-1.737.6l-.439.177zm-4.719 2.88-.573-.752.377-.286c.53-.404 1.056-.774 1.575-1.107l.397-.256.512.795-.397.254c-.499.322-1.004.676-1.514 1.066l-.377.286zm-3.987 3.882-.71-.623.31-.356c.407-.464.842-.93 1.31-1.403l.333-.333.67.665-.333.335a29 29 0 0 0-1.268 1.359l-.312.356zm-3.044 4.628-.84-.432.215-.42a21.7 21.7 0 0 1 .96-1.676l.252-.4.799.505-.253.4a21.038 21.038 0 0 0-.917 1.601l-.216.422zm-1.584 5.26-.934-.144.072-.467c.097-.628.233-1.268.407-1.9l.126-.456.91.252-.124.455c-.165.597-.294 1.2-.386 1.793l-.071.467zm-.423 5.684-.157-.446c-.01-.03-.259-.742-.39-1.96l-.05-.469.94-.101.05.47c.117 1.098.342 1.746.342 1.746l.155.445-.89.315M141.123 101.361l-.426-.844.423-.211c.595-.3 1.189-.564 1.769-.787l.442-.17.337.883-.44.169a18.26 18.26 0 0 0-1.684.749l-.421.211zm-4.571 3.153-.603-.73.366-.3c.52-.429 1.028-.818 1.52-1.173l.384-.275.552.767-.384.276c-.476.341-.968.72-1.471 1.135l-.364.3zm-3.944 3.957-.711-.624.312-.355c.436-.496.87-.964 1.296-1.405l.33-.339.678.658-.329.34c-.417.429-.839.886-1.265 1.37l-.311.355zm-3.141 4.579-.828-.455.226-.413c.304-.554.635-1.105.994-1.651l.26-.395.789.519-.259.395a22.743 22.743 0 0 0-.954 1.586l-.228.414zm-2.007 5.178-.908-.26.129-.454c.172-.602.37-1.213.595-1.829l.163-.443.888.323-.163.445a26.401 26.401 0 0 0-.575 1.765l-.129.453zm-.899 5.497-.942-.077.04-.47c.049-.606.12-1.243.217-1.909l.068-.466.935.136-.068.468a28.76 28.76 0 0 0-.211 1.846l-.039.472zm-.716 5.692-.077-.465c-.005-.031-.12-.737-.179-1.936l-.022-.472.944-.045.022.472c.056 1.139.167 1.828.167 1.828l.077.465-.932.153zM154.848 23.19l-.048-.943.472-.024c.653-.032 1.289-.051 1.908-.058l.472-.004.009.946-.472.004a43.37 43.37 0 0 0-1.869.056l-.472.024zm8.411.27-.47-.055a48.114 48.114 0 0 0-1.861-.176l-.472-.034.069-.943.472.035c.671.049 1.306.11 1.902.18l.468.054-.108.939zm-13.974.428-.166-.93.465-.083a44.52 44.52 0 0 1 1.885-.298l.468-.064.128.936-.468.064c-.606.083-1.222.18-1.846.292l-.466.083zm19.434.704-.451-.141s-.653-.203-1.792-.446l-.463-.1.198-.924.461.099c1.189.253 1.852.46 1.879.47l.45.14-.282.902zm-24.856.71-.288-.9.449-.145a43.902 43.902 0 0 1 1.833-.542l.455-.124.248.912-.456.124a39.99 39.99 0 0 0-1.791.53l-.45.144zm-5.184 2.122-.406-.853.427-.202a42.251 42.251 0 0 1 1.743-.784l.434-.184.368.871-.434.184c-.567.239-1.135.495-1.704.765l-.428.203zm-4.854 2.797-.516-.792.396-.257a45.648 45.648 0 0 1 1.623-1.008l.407-.24.481.813-.408.24c-.529.314-1.057.642-1.587.987l-.396.257zm-4.361 3.478-.644-.691.345-.323c.459-.428.94-.849 1.444-1.261l.366-.3.598.73-.365.3c-.488.4-.953.809-1.399 1.223l-.345.322zm-3.609 4.237-.767-.553.276-.383c.367-.51.757-1.017 1.172-1.521l.3-.364.729.601-.3.365c-.402.486-.778.978-1.134 1.471l-.276.384zm-2.704 4.865-.862-.39.196-.43c.26-.572.543-1.146.85-1.722l.222-.416.834.445-.223.416a28.306 28.306 0 0 0-.823 1.667l-.194.43zm-1.738 5.299-.917-.225.112-.46c.148-.603.319-1.22.515-1.848l.14-.452.902.281-.14.452c-.19.61-.356 1.208-.498 1.792l-.114.46zm-.777 5.53-.943-.063.031-.472c.04-.59.099-1.231.185-1.91l.059-.469.937.119-.058.468a31.016 31.016 0 0 0-.18 1.854l-.031.472zm-.827 4.191-.057-.469s-.016-.143-.037-.41l-.036-.471.942-.072.036.47c.018.236.035.371.035.371l.055.47-.938.111M304.068 155.28l-.345-.323a27.323 27.323 0 0 0-1.395-1.234l-.368-.298.592-.736.367.296s.561.45 1.449 1.282l.345.322-.645.691zm3.808 4.131-.301-.363a45.074 45.074 0 0 0-1.228-1.416l-.318-.351.702-.633.317.351c.405.448.825.93 1.253 1.445l.302.363-.727.604zm3.24 4.574-.249-.401a39.775 39.775 0 0 0-1.027-1.561l-.269-.388.777-.539.269.389a39.84 39.84 0 0 1 1.051 1.599l.251.401-.803.5zm2.476 5.006-.176-.439a30.037 30.037 0 0 0-.751-1.703l-.204-.426.852-.407.204.427c.274.572.534 1.157.775 1.756l.176.438-.876.354zm1.397 5.37-.073-.466a23.025 23.025 0 0 0-.363-1.815l-.11-.459.918-.222.111.46c.149.621.277 1.252.377 1.889l.074.467-.934.146zm.924 5.635-.938-.113.056-.47c.073-.606.117-1.225.133-1.838l.011-.472.944.022-.011.472a20.717 20.717 0 0 1-.139 1.93l-.056.469zm-1.485 5.564-.893-.307.153-.446c.197-.576.387-1.17.565-1.78l.134-.454.906.266-.133.454a41.85 41.85 0 0 1-.579 1.819l-.153.448zm-2.303 5.247-.84-.434.216-.42c.279-.537.55-1.096.814-1.677l.194-.431.862.391-.196.431a37.77 37.77 0 0 1-.834 1.721l-.216.419zm-3.108 4.829-.756-.567.283-.377c.36-.481.719-.988 1.072-1.524l.261-.393.788.521-.261.395c-.364.55-.733 1.072-1.103 1.566l-.284.379zm-3.913 4.212-.639-.696.348-.32c.43-.395.875-.828 1.328-1.301l.328-.34.682.653-.327.341a29.88 29.88 0 0 1-1.372 1.343l-.348.32zm-4.745 3.301-.442-.836.418-.221c.334-.176.88-.485 1.573-.953l.392-.266.529.783-.392.264a17.96 17.96 0 0 1-1.661 1.008l-.417.221z" fill="#0041EF"/><defs><linearGradient id="a" x1="150.465" y1="157.706" x2="274.416" y2="231.783" gradientUnits="userSpaceOnUse"><stop stop-color="#E4F1F9"/><stop offset="1" stop-color="#ADCFF1"/></linearGradient></defs></svg>